<svg id="visual" viewBox="0 0 1920 1080" width="1920" height="1080" xmlns="http://www.w3.org/2000/svg" xmlns:xlink="http://www.w3.org/1999/xlink" version="1.1"><rect x="0" y="0" width="1920" height="1080" fill="#023e8a"></rect><path d="M1498 1080L1495 1070C1492 1060 1486 1040 1490.3 1020C1494.7 1000 1509.3 980 1511 960C1512.7 940 1501.3 920 1494.5 900C1487.7 880 1485.3 860 1482.8 840C1480.3 820 1477.7 800 1496.8 780C1516 760 1557 740 1559.3 720C1561.7 700 1525.3 680 1527.3 660C1529.3 640 1569.7 620 1587.8 600C1606 580 1602 560 1598.2 540C1594.3 520 1590.7 500 1581.2 480C1571.7 460 1556.3 440 1557 420C1557.7 400 1574.3 380 1571 360C1567.7 340 1544.3 320 1536.8 300C1529.3 280 1537.7 260 1534.3 240C1531 220 1516 200 1507.2 180C1498.3 160 1495.7 140 1496.2 120C1496.7 100 1500.3 80 1497.3 60C1494.3 40 1484.7 20 1479.8 10L1475 0L1920 0L1920 10C1920 20 1920 40 1920 60C1920 80 1920 100 1920 120C1920 140 1920 160 1920 180C1920 200 1920 220 1920 240C1920 260 1920 280 1920 300C1920 320 1920 340 1920 360C1920 380 1920 400 1920 420C1920 440 1920 460 1920 480C1920 500 1920 520 1920 540C1920 560 1920 580 1920 600C1920 620 1920 640 1920 660C1920 680 1920 700 1920 720C1920 740 1920 760 1920 780C1920 800 1920 820 1920 840C1920 860 1920 880 1920 900C1920 920 1920 940 1920 960C1920 980 1920 1000 1920 1020C1920 1040 1920 1060 1920 1070L1920 1080Z" fill="#03045e" stroke-linecap="round" stroke-linejoin="miter"></path></svg>